<svg width="44" height="44" viewBox="0 0 44 44" fill="none" xmlns="http://www.w3.org/2000/svg">
<path d="M11 22.1336C11 20.2586 11 19.3211 11.3492 18.4781C11.6983 17.6352 12.3612 16.9722 13.6871 15.6464L13.8129 15.5206C15.1388 14.1947 15.8017 13.5318 16.6446 13.1827C17.4876 12.8335 18.4251 12.8335 20.3001 12.8335H23.6999C25.5749 12.8335 26.5124 12.8335 27.3554 13.1827C28.1983 13.5318 28.8612 14.1947 30.1871 15.5206L30.3129 15.6464C31.6388 16.9722 32.3017 17.6352 32.6508 18.4781C33 19.3211 33 20.2586 33 22.1336V27.4926C33 31.8174 33 33.9798 31.6565 35.3233C30.3129 36.6668 28.1506 36.6668 23.8258 36.6668H20.1742C15.8494 36.6668 13.6871 36.6668 12.3435 35.3233C11 33.9798 11 31.8174 11 27.4926V22.1336Z" stroke="#FF8282" stroke-width="2.29355"/>
<path d="M16.5 12.8332L11.3181 9.37854C11.1255 9.25014 10.8745 9.25014 10.6819 9.37854L6.08195 12.4452C5.78089 12.6459 5.73871 13.0719 5.99456 13.3277L10.6203 17.9535C10.8634 18.1966 11 18.5263 11 18.8701V18.8701C11 19.5861 11.5804 20.1665 12.2964 20.1665H31.7036C32.4196 20.1665 33 19.5861 33 18.8701V18.8701C33 18.5263 33.1366 18.1966 33.3797 17.9535L38.0054 13.3277C38.2613 13.0719 38.2191 12.6459 37.918 12.4452L33.3181 9.37854C33.1255 9.25014 32.8745 9.25014 32.6819 9.37854L27.5 12.8332" stroke="#FF8282" stroke-width="2.29355" stroke-linecap="round"/>
</svg>
